<svg width="496" height="496" viewBox="0 0 496 496" fill="none" xmlns="http://www.w3.org/2000/svg">
  <path
    d="M0 248C0 111.033 111.033 0 248 0C384.967 0 496 111.033 496 248C496 384.967 384.967 496 248 496C111.033 496 0 384.967 0 248ZM72.455 373.868C111.657 428.446 175.673 464 248 464C320.327 464 384.343 428.446 423.545 373.868C420.404 346.878 400.878 324.22 374.007 317.502L341.633 309.409C315.565 331.79 282.722 344 248 344C213.278 344 180.435 331.79 154.366 309.409L121.992 317.502C95.122 324.22 75.596 346.878 72.455 373.868ZM136 200C136 261.856 186.144 312 248 312C309.856 312 360 261.856 360 200C360 138.144 309.856 88 248 88C186.144 88 136 138.144 136 200Z"
    fill="silver"/>
</svg>
