<svg width="576" height="512" viewBox="0 0 576 512" fill="none" xmlns="http://www.w3.org/2000/svg">
  <path
    d="M561.938 158.06L417.94 14.0922C387.926 -15.9218 336 5.09722 336 48.0322V105.23C293.55 107.11 251.97 111.78 215.24 123.22C180.07 134.17 152.17 150.8 132.33 172.64C108.22 199.2 96 232.6 96 271.94C96 333.637 129.178 384.395 180.87 416.7C218.416 440.208 266.118 404.049 251.89 360.96C236.375 313.841 234.734 290.037 336 282.2V336C336 378.993 387.968 399.913 417.94 369.94L561.938 225.94C580.688 207.2 580.688 176.8 561.938 158.06ZM384 336V232.16C255.309 234.082 166.492 255.35 206.31 376C176.79 357.55 144 324.08 144 271.94C144 162.606 273.14 152.993 384 152.09V48.0002L528 192L384 336ZM408.74 420.493C416.13 418.382 423.189 415.251 429.714 411.19C437.69 406.238 448 412.016 448 421.404V464C448 490.51 426.51 512 400 512H48C21.49 512 0 490.51 0 464V112C0 85.4902 21.49 64.0002 48 64.0002H180C186.627 64.0002 192 69.3732 192 76.0002V80.4862C192 85.4032 189.013 89.8552 184.431 91.6382C170.729 96.9692 158.035 103.175 146.381 110.223C144.489 111.378 142.317 111.992 140.101 112H54C52.4087 112 50.8826 112.632 49.7574 113.758C48.6321 114.883 48 116.409 48 118V458C48 459.592 48.6321 461.118 49.7574 462.243C50.8826 463.368 52.4087 464 54 464H394C395.591 464 397.117 463.368 398.243 462.243C399.368 461.118 400 459.592 400 458V432.034C400 426.664 403.579 421.975 408.74 420.493Z"
    fill="black"/>
</svg>
