<svg width="512" height="513" viewBox="0 0 512 513" fill="none" xmlns="http://www.w3.org/2000/svg">
  <path
    d="M69.3756 505.086L169.059 405.369C173.558 400.868 176.057 394.767 176.057 388.366V372.064C211.351 399.668 255.744 416.071 304.036 416.071C418.916 416.071 512 322.955 512 208.036C512 93.1159 418.916 0 304.036 0C189.155 0 96.071 93.1159 96.071 208.036C96.071 256.344 112.468 300.751 140.064 336.057H123.766C117.367 336.057 111.268 338.558 106.769 343.059L7.08624 442.776C-2.31216 452.177 -2.31216 467.38 7.08624 476.681L35.3814 504.986C44.7798 514.388 59.9772 514.388 69.3756 505.086ZM176.057 208.036C176.057 137.323 233.248 80.0137 304.036 80.0137C374.723 80.0137 432.014 137.223 432.014 208.036C432.014 278.748 374.823 336.057 304.036 336.057C233.348 336.057 176.057 278.848 176.057 208.036Z"
    fill="#CBCBCB"/>
</svg>
